<svg xmlns="http://www.w3.org/2000/svg" xml:space="preserve" width="506.67734" height="176.01067" viewBox="0 0 506.67734 176.01067"><defs><linearGradient id="a" x1="0" x2="1" y1="0" y2="0" gradientTransform="matrix(29.04038 -37.1187 -35.58244 -26.64345 274.32 86.996)" gradientUnits="userSpaceOnUse" spreadMethod="pad"><stop offset="0" style="stop-opacity:1;stop-color:#c9da2a"/><stop offset="1" style="stop-opacity:1;stop-color:#72be44"/></linearGradient><linearGradient id="b" x1="0" x2="1" y1="0" y2="0" gradientTransform="matrix(35.6749 20.71353 23.07267 -36.845 206.674 83.876)" gradientUnits="userSpaceOnUse" spreadMethod="pad"><stop offset="0" style="stop-opacity:1;stop-color:#00adee"/><stop offset="1" style="stop-opacity:1;stop-color:#007dc4"/></linearGradient><linearGradient id="c" x1="0" x2="1" y1="0" y2="0" gradientTransform="matrix(-70.04905 -4.70888 -9.08695 70.1124 262.831 36.557)" gradientUnits="userSpaceOnUse" spreadMethod="pad"><stop offset="0" style="stop-opacity:1;stop-color:#fbae17"/><stop offset="1" style="stop-opacity:1;stop-color:#e21f26"/></linearGradient></defs><path d="m292.873 105.181-6.132-12.872c11.495-5.902 18.717-14.202 19.885-23.245 1.799-13.808-9.099-26.476-30.172-34.118-.274-.086-.502-.385-.403-.714.106-.3.5-.384.799-.336 27.647 5.288 42.689 22.548 40.116 42.429-1.505 11.576-10.18 21.905-24.089 28.885z" style="fill:url(#a);stroke:none" transform="matrix(1.33333 0 0 -1.33333 0 176.01)"/><path d="M224.231 109.548c-15.31-.741-27.792-3.13-38.695-9.116l7.798-12.517c11.218 8.364 26.55 12.854 44.913 13.761 13.88.662 27.373-1.191 39-5.371.276-.09.605-.026.741.23.129.27-.036.592-.296.74-12.188 7.985-29.366 12.412-47.781 12.413-1.882 0-3.776-.047-5.68-.14" style="fill:url(#b);stroke:none" transform="matrix(1.33333 0 0 -1.33333 0 176.01)"/><path d="M63.351 92.526h24.955l-1.486-7.124H71.002l-2.29-11.135h15.105l-1.35-7.122H67.29l-3.964-19.81h-9.074zM96.279 52.898c6.005-.403 7.759.517 7.759.517s1.509 7.313 1.99 9.325h-3.042c-4.211 0-11.21-.71-11.164-6.337.03-2.338 2.248-3.352 4.457-3.505m-2.342-6.334c-6.024.337-10.346 3.357-10.4 9.505-.11 11.014 12.2 11.847 20.374 11.847h3.034c.266.905.253 1.89.235 2.855-.021 3.377-3.663 4.341-6.71 4.341-3.834 0-7.518-.964-10.932-2.592l1.163 6.933c3.67 1.285 7.436 2.004 11.322 2.004 6.679 0 12.993-2.46 13.067-10.295.043-4.475-3.131-17.547-3.857-23.827 0 0-8.383-1.284-17.296-.77M121.872 76.21c.246 1.428.732 4.473.732 4.473h8.292l-1.09-6.29h.12c1.517 3.625 5.655 6.187 9.586 6.978 1.881.386 4.282.239 5.398-.1l-1.736-8.472c-.968.316-2.909.545-5.204.372-6.129-.478-9.077-5.506-10.128-10.884l-2.976-14.952h-8.676zM224.708 73.554c-2.548.84-5.217 1.559-7.931 1.559-2.874 0-7.506-.72-7.413-3.372.159-4.198 13.753-5.76 14.067-13.914.3-8.691-7.983-11.262-16.226-11.262-3.877 0-7.756.506-11.332 1.999l1.829 6.929c2.768-1.355 5.539-2.594 9.268-2.594 3.235 0 7.624.978 7.518 3.703-.193 5.359-13.753 5.889-14.054 14.238-.287 7.83 7.988 10.617 15.589 10.617 3.513 0 7.116-.584 10.513-1.363zM253.44 73.041c-1.783 1.107-4.15 1.687-6.645 1.687-7.261 0-11.741-6.476-11.677-12.767.042-4.332 2.063-8.667 8.286-8.667 2.223 0 5 .583 7.36 1.674l-.952-6.847c-2.759-1.298-5.73-1.557-8.71-1.557-9.007 0-14.894 5.756-14.982 14.368-.112 11.655 7.864 20.525 20.388 20.525 3.401 0 6.654-.584 9.094-1.302zM280.437 66.752c-.043 4.354-2.042 7.977-7.153 7.977-6.88 0-10.742-7.583-10.666-13.607.063-4.397 2.358-7.828 7.345-7.828 6.76 0 10.526 7.758 10.474 13.458m8.594.072c.123-11.727-7.892-20.259-19.691-20.259-9.475 0-15.238 5.82-15.324 15.211-.112 11.131 8.355 19.681 19.57 19.681 9.02 0 15.369-5.436 15.445-14.633M186.456 81.349c-4.653 0-9.504-2.008-11.664-6.347h-.143c-.476 4.017-4.593 6.347-8.546 6.347-4.09 0-7.89-1.811-10.19-5.24h-.13l.734 4.466h-8.107c-.185-1.037-.425-2.396-.673-3.692L141.93 47.23h8.69l3.276 15.867c1.064 4.46 2.614 11.523 8.515 11.523 2.206 0 4.106-1.552 4.126-4.018.022-2.014-.602-5.104-1.043-7.114L162.16 47.23h8.69l3.275 15.867c1.063 4.529 2.485 11.523 8.515 11.523 2.194 0 4.107-1.552 4.118-4.018.017-2.014-.589-5.104-1.02-7.114l-1.848-8.932c1.813-2.784 4.33-5.371 7.191-7.311l3.33 15.91c.693 2.727 1.43 6.09 1.414 9.07-.06 5.05-4.38 9.124-9.369 9.124" style="fill:#e21f26;fill-opacity:1;fill-rule:nonzero;stroke:none" transform="matrix(1.33333 0 0 -1.33333 0 176.01)"/><path d="M182.683 50.835c-.34-.126-.281-.638-.201-.913 4.338-14.762 24.247-29.154 59.391-32.834 11.606-1.211 23.319-.41 31.344 1.217.018 0 .033 0 .042.006l-2.877 14.15c-1.244-.326-11.292-3.225-22.804-3.846-30.795-1.647-53.747 7.678-64.047 21.624-.156.211-.444.62-.731.62a.302.302 0 0 1-.117-.024" style="fill:url(#c);stroke:none" transform="matrix(1.33333 0 0 -1.33333 0 176.01)"/></svg>